<svg width="126" height="38" viewBox="0 0 126 38" fill="none" xmlns="http://www.w3.org/2000/svg">
<path d="M49 9.18182V14.8636H34.625V9.18182H49ZM37.4091 3.95455H45.25V23.983C45.25 24.286 45.3021 24.5417 45.4062 24.75C45.5104 24.9489 45.6714 25.1004 45.8892 25.2045C46.107 25.2992 46.3864 25.3466 46.7273 25.3466C46.964 25.3466 47.2386 25.3182 47.5511 25.2614C47.8731 25.2045 48.1098 25.1572 48.2614 25.1193L49.3977 30.6307C49.0473 30.7348 48.5455 30.8627 47.892 31.0142C47.2481 31.1657 46.4811 31.2652 45.5909 31.3125C43.7917 31.4072 42.2813 31.2225 41.0597 30.7585C39.8381 30.285 38.9195 29.5417 38.304 28.5284C37.6884 27.5152 37.3902 26.2462 37.4091 24.7216V3.95455ZM62.4766 31.3977C60.1091 31.3977 58.0826 30.929 56.397 29.9915C54.7114 29.0445 53.4188 27.7282 52.5192 26.0426C51.6196 24.3475 51.1697 22.3826 51.1697 20.1477C51.1697 17.9129 51.6196 15.9527 52.5192 14.267C53.4188 12.572 54.7114 11.2557 56.397 10.3182C58.0826 9.37121 60.1091 8.89773 62.4766 8.89773C64.844 8.89773 66.8705 9.37121 68.5561 10.3182C70.2417 11.2557 71.5343 12.572 72.4339 14.267C73.3336 15.9527 73.7834 17.9129 73.7834 20.1477C73.7834 22.3826 73.3336 24.3475 72.4339 26.0426C71.5343 27.7282 70.2417 29.0445 68.5561 29.9915C66.8705 30.929 64.844 31.3977 62.4766 31.3977ZM62.5334 25.6023C63.1963 25.6023 63.7692 25.3797 64.2521 24.9347C64.7351 24.4896 65.1091 23.8551 65.3743 23.0312C65.6394 22.2074 65.772 21.2273 65.772 20.0909C65.772 18.9451 65.6394 17.965 65.3743 17.1506C65.1091 16.3267 64.7351 15.6922 64.2521 15.2472C63.7692 14.8021 63.1963 14.5795 62.5334 14.5795C61.8326 14.5795 61.2313 14.8021 60.7294 15.2472C60.2275 15.6922 59.844 16.3267 59.5788 17.1506C59.3137 17.965 59.1811 18.9451 59.1811 20.0909C59.1811 21.2273 59.3137 22.2074 59.5788 23.0312C59.844 23.8551 60.2275 24.4896 60.7294 24.9347C61.2313 25.3797 61.8326 25.6023 62.5334 25.6023Z" fill="#4EA8DE"/>
<path d="M84.8629 31.2841C83.3099 31.2841 81.88 30.8769 80.5732 30.0625C79.2758 29.2481 78.2341 28.0123 77.4482 26.3551C76.6716 24.6979 76.2834 22.6098 76.2834 20.0909C76.2834 17.4583 76.6906 15.3182 77.505 13.6705C78.3288 12.0227 79.3894 10.8153 80.6868 10.0483C81.9936 9.28125 83.3667 8.89773 84.8061 8.89773C85.8857 8.89773 86.8326 9.08712 87.647 9.46591C88.4614 9.83523 89.1432 10.3324 89.6925 10.9574C90.2417 11.5729 90.6584 12.25 90.9425 12.9886H91.0561V1.90909H98.897V31H91.1129V27.4205H90.9425C90.6394 28.1591 90.2038 28.822 89.6357 29.4091C89.0769 29.9867 88.3951 30.446 87.5902 30.7869C86.7947 31.1184 85.8857 31.2841 84.8629 31.2841ZM87.7607 25.2614C88.4804 25.2614 89.0959 25.053 89.6072 24.6364C90.1281 24.2102 90.5258 23.6136 90.8004 22.8466C91.0845 22.0701 91.2266 21.1515 91.2266 20.0909C91.2266 19.0114 91.0845 18.0881 90.8004 17.321C90.5258 16.5445 90.1281 15.9527 89.6072 15.5455C89.0959 15.1288 88.4804 14.9205 87.7607 14.9205C87.041 14.9205 86.4254 15.1288 85.9141 15.5455C85.4122 15.9527 85.0239 16.5445 84.7493 17.321C84.4841 18.0881 84.3516 19.0114 84.3516 20.0909C84.3516 21.1705 84.4841 22.0985 84.7493 22.875C85.0239 23.642 85.4122 24.2339 85.9141 24.6506C86.4254 25.0578 87.041 25.2614 87.7607 25.2614ZM113.258 31.3977C110.89 31.3977 108.864 30.929 107.178 29.9915C105.493 29.0445 104.2 27.7282 103.3 26.0426C102.401 24.3475 101.951 22.3826 101.951 20.1477C101.951 17.9129 102.401 15.9527 103.3 14.267C104.2 12.572 105.493 11.2557 107.178 10.3182C108.864 9.37121 110.89 8.89773 113.258 8.89773C115.625 8.89773 117.652 9.37121 119.337 10.3182C121.023 11.2557 122.316 12.572 123.215 14.267C124.115 15.9527 124.565 17.9129 124.565 20.1477C124.565 22.3826 124.115 24.3475 123.215 26.0426C122.316 27.7282 121.023 29.0445 119.337 29.9915C117.652 30.929 115.625 31.3977 113.258 31.3977ZM113.315 25.6023C113.978 25.6023 114.55 25.3797 115.033 24.9347C115.516 24.4896 115.89 23.8551 116.156 23.0312C116.421 22.2074 116.553 21.2273 116.553 20.0909C116.553 18.9451 116.421 17.965 116.156 17.1506C115.89 16.3267 115.516 15.6922 115.033 15.2472C114.55 14.8021 113.978 14.5795 113.315 14.5795C112.614 14.5795 112.013 14.8021 111.511 15.2472C111.009 15.6922 110.625 16.3267 110.36 17.1506C110.095 17.965 109.962 18.9451 109.962 20.0909C109.962 21.2273 110.095 22.2074 110.36 23.0312C110.625 23.8551 111.009 24.4896 111.511 24.9347C112.013 25.3797 112.614 25.6023 113.315 25.6023Z" fill="#5E60CE"/>
<g clip-path="url(#clip0_4130_509)">
<path d="M11.0215 4.93302C14.1472 8.9011 15.8158 13.7944 15.7553 18.8155V20.0141L16.7865 20.6416C18.119 21.4482 19.1127 22.6993 19.5866 24.1669C19.1705 23.8605 18.7352 23.5803 18.2833 23.3278L15.5333 21.7838L15.0391 24.9001C14.9963 25.1755 14.9389 25.4485 14.8672 25.718H7.16151C7.04692 25.3655 6.95382 25.0129 6.86789 24.6463L6.24484 21.8261L3.70968 23.2362C3.28615 23.473 2.87723 23.7344 2.48507 24.0188C2.96824 22.5682 3.94123 21.3242 5.24224 20.4935L6.22336 19.866V18.7521C6.24106 13.7513 7.92967 8.89523 11.0287 4.93302H11.0215ZM11.0287 2C10.868 2.00039 10.7128 2.05799 10.5918 2.16216L10.5274 2.21857C6.39778 6.76564 4.10466 12.6454 4.08208 18.745C2.32967 19.8643 1.03251 21.5543 0.417263 23.5197C-0.197979 25.485 -0.0921719 27.6007 0.716194 29.4971C1.56776 27.6455 2.99131 26.1058 4.7839 25.0975C4.96368 25.8642 5.2031 26.6161 5.50005 27.3467C5.53771 27.4871 5.62118 27.6114 5.73763 27.7006C5.85408 27.7898 5.99706 27.8388 6.14458 27.8402H16.0847C16.2852 27.8402 16.4857 27.6498 16.586 27.3537C16.8758 26.6592 17.0778 25.9322 17.1875 25.1892C18.9836 26.1932 20.4083 27.7342 21.2553 29.5887C22.1124 27.7017 22.2451 25.5727 21.6287 23.5967C21.0124 21.6206 19.6888 19.9319 17.9037 18.8437C17.9745 12.7082 15.6935 6.77179 11.5157 2.21857C11.4535 2.15008 11.3773 2.09524 11.2922 2.05759C11.2071 2.01993 11.1149 2.00031 11.0215 2H11.0287Z" fill="#4EA8DE"/>
<path d="M11.0216 18.1598C10.4715 18.1598 9.93376 17.9995 9.47611 17.699C9.01846 17.3986 8.6614 16.9715 8.44993 16.4716C8.23847 15.9716 8.18206 15.4213 8.28782 14.8898C8.39358 14.3584 8.65678 13.8697 9.04423 13.4853C9.43169 13.1009 9.92606 12.838 10.465 12.7298C11.004 12.6216 11.5634 12.6729 12.0728 12.8773C12.5822 13.0816 13.0188 13.4298 13.3275 13.8781C13.6361 14.3263 13.8031 14.8545 13.8074 15.396C13.8159 15.7469 13.7542 16.0961 13.6256 16.4235C13.4971 16.751 13.3043 17.0503 13.0582 17.3043C12.8121 17.5583 12.5176 17.7622 12.1915 17.9041C11.8654 18.0461 11.5141 18.1234 11.1576 18.1316C11.1126 18.1387 11.0666 18.1387 11.0216 18.1316V18.1598Z" fill="#4EA8DE"/>
<path d="M14.8959 29.5958C14.7167 29.5901 14.5382 29.6198 14.3708 29.683C14.2034 29.7462 14.0505 29.8416 13.9211 29.9638C13.7917 30.086 13.6884 30.2323 13.6172 30.3943C13.546 30.5563 13.5084 30.7307 13.5066 30.9072V35.067C13.5066 35.4297 13.653 35.7776 13.9135 36.0342C14.1741 36.2907 14.5274 36.4348 14.8959 36.4348C15.2644 36.4348 15.6178 36.2907 15.8783 36.0342C16.1389 35.7776 16.2852 35.4297 16.2852 35.067V30.9636C16.291 30.7877 16.2611 30.6126 16.1973 30.4482C16.1336 30.2839 16.0372 30.1337 15.9139 30.0064C15.7906 29.879 15.6428 29.7772 15.4791 29.7067C15.3154 29.6362 15.139 29.5985 14.9604 29.5958H14.8959Z" fill="#5E60CE"/>
<path d="M7.16154 29.5957C6.97931 29.5863 6.797 29.6129 6.62546 29.6742C6.45392 29.7355 6.29665 29.8302 6.16302 29.9525C6.02939 30.0749 5.92213 30.2224 5.84761 30.3864C5.77309 30.5504 5.73284 30.7275 5.72925 30.9071V35.067C5.72925 35.4297 5.87562 35.7776 6.13617 36.0341C6.39672 36.2906 6.7501 36.4348 7.11857 36.4348C7.48704 36.4348 7.84042 36.2906 8.10097 36.0341C8.36152 35.7776 8.50789 35.4297 8.50789 35.067V30.9635C8.51362 30.7877 8.48373 30.6125 8.41998 30.4482C8.35623 30.2838 8.25989 30.1336 8.13658 30.0063C8.01326 29.879 7.86544 29.7771 7.70173 29.7067C7.53802 29.6362 7.36169 29.5985 7.18302 29.5957H7.16154Z" fill="#5E60CE"/>
<path d="M10.9213 29.5958C10.7426 29.592 10.5649 29.623 10.3984 29.6869C10.2318 29.7507 10.0797 29.8463 9.95068 29.9681C9.82167 30.0899 9.71828 30.2355 9.64644 30.3966C9.5746 30.5577 9.5357 30.7312 9.53198 30.9072V36.6392C9.53198 37.002 9.67836 37.3499 9.93891 37.6064C10.1995 37.8629 10.5528 38.007 10.9213 38.007C11.2898 38.007 11.6432 37.8629 11.9037 37.6064C12.1643 37.3499 12.3106 37.002 12.3106 36.6392V30.9988C12.3164 30.823 12.2865 30.6478 12.2227 30.4835C12.159 30.3191 12.0626 30.1689 11.9393 30.0416C11.816 29.9143 11.6682 29.8124 11.5045 29.7419C11.3408 29.6714 11.1644 29.6337 10.9858 29.631L10.9213 29.5958Z" fill="#5E60CE"/>
</g>
<defs>
<clipPath id="clip0_4130_509">
<rect width="22" height="36" fill="white" transform="translate(0 2)"/>
</clipPath>
</defs>
</svg>
